<svg width="55" height="55" viewBox="0 0 55 55" fill="none" xmlns="http://www.w3.org/2000/svg">
<rect width="55" height="55" rx="27.5" fill="#D1E6FF"/>
<path d="M35.0927 27.3867L34.6183 27.4059C34.6183 27.4059 35.3007 26.9178 35.5041 25.7949L35.1848 26.085C35.1848 26.085 35.3398 24.3434 34.4932 23.2543V23.7578C34.4932 23.7578 34.2607 22.9742 33.0564 22.4852L33.5016 23.2014C33.5016 23.2014 32.4861 22.0209 30.6279 22.4169L31.3148 22.5819C31.3148 22.5819 29.8389 22.7508 29.495 23.8008L29.8819 23.5974C29.8819 23.5974 29.5042 24.3519 29.6109 25.0104C29.6109 25.0104 30.0853 24.3619 31.0094 24.454L30.5304 24.7004C30.5304 24.7004 31.8414 24.3381 32.5091 24.9091L32.1753 25.0012C32.1753 25.0012 33.0173 25.1854 32.8139 25.93L32.4608 25.6736C32.4608 25.6736 32.7931 26.2684 32.1937 26.6844C31.0969 25.943 29.6355 25.9775 29.6355 25.9775L26.7472 25.7657C25.9137 25.7051 25.325 25.1724 24.985 24.4409C24.9305 24.3235 24.8813 24.2045 24.8322 24.0848C24.7892 23.9804 24.7462 23.8768 24.7033 23.7724C24.6396 23.6181 24.5874 23.4608 24.5244 23.3065C24.3356 22.8498 24.08 22.3885 23.6894 22.1007C23.5873 21.7154 23.4299 21.2572 23.1866 20.789C23.1866 20.789 23.0131 20.4536 22.9395 20.7422C22.8857 20.9509 22.7875 21.2672 22.7906 21.7722C22.3991 21.7307 21.99 21.7945 21.6546 21.9702C21.3522 22.1291 21.1718 22.3962 20.907 22.5988C20.7558 22.714 20.5371 22.7355 20.3575 22.7193C20.2331 22.7086 20.0773 22.6886 19.9338 22.7048C19.9177 22.694 19.9 22.6856 19.8793 22.6802C19.8263 22.6648 19.7642 22.6602 19.7097 22.661C19.6797 22.661 19.649 22.6648 19.6222 22.6787C19.5477 22.717 19.5278 22.813 19.5185 22.889C19.5124 22.9396 19.5101 23.0003 19.527 23.0524C19.4717 23.2436 19.4748 23.48 19.4832 23.6327C19.4955 23.8568 19.5692 24.0856 19.7265 24.2452C19.8662 24.3864 20.0574 24.4632 20.2462 24.5238C20.5033 24.6067 20.7681 24.6674 21.0137 24.7802C21.4075 24.9598 21.67 25.3036 21.7728 25.7204C21.8772 26.1472 21.8219 27.8726 21.8004 28.307L22.0192 28.0292C22.0192 28.0292 21.9593 28.6363 22.0491 29.0638L22.109 28.8796C23.1513 32.5009 21.8572 34.3046 21.8572 34.3046C21.2716 34.5648 21.4236 35.0882 21.4236 35.0882H22.429C23.0362 34.6492 23.3363 33.1533 23.3363 33.1533L23.5205 33.3897L23.3608 32.6943L23.6118 33.1801C23.6633 32.616 23.4384 32.025 23.4384 32.025L23.8214 32.8386C23.8198 32.3397 23.3839 31.2375 23.3839 31.2375L23.6372 31.612C24.1407 33.5639 23.6917 34.3046 23.6917 34.3046C23.1053 34.5648 23.2565 35.0882 23.2565 35.0882H24.1852C24.7931 34.6492 25.0962 33.1533 25.0962 33.1533L25.2797 33.3897L25.1223 32.6943L25.3718 33.1801C25.424 32.616 25.2014 32.025 25.2014 32.025L25.5821 32.8386C25.5821 32.3397 25.1492 31.2375 25.1492 31.2375L25.5821 31.8807C25.5775 31.7034 25.5061 31.4608 25.4171 31.2244C25.8699 31.2935 26.4947 31.315 27.2431 31.1523L26.7158 31.0349L27.6552 30.9389C28.2025 32.9238 30.0354 32.9499 30.0354 32.9499C30.8175 33.0919 30.9948 34.4565 30.9948 34.4565C30.687 34.8004 30.7085 35.132 30.7085 35.132C30.7085 35.132 30.7093 35.1343 30.7116 35.1381L31.7761 35.132C32.2305 34.0935 31.7792 33.2377 31.4499 32.801C31.8552 32.9453 32.1676 32.9499 32.1676 32.9499C32.9497 33.0919 33.127 34.4565 33.127 34.4565C32.8192 34.8004 32.8407 35.132 32.8407 35.132C32.8407 35.132 32.8415 35.1343 32.8438 35.1381L33.9084 35.132C34.5715 33.6161 33.3043 32.4886 33.3043 32.4886C32.7356 32.1332 33.0556 31.7778 33.0556 31.7778C33.4954 31.0157 33.5 30.5191 33.4878 30.3694L33.5883 31.2099C33.979 30.6411 33.7656 29.6111 33.7656 29.6111C34.1563 30.1798 34.0496 30.5352 34.0496 30.5352C34.5815 28.931 33.2583 28.132 33.2583 28.132C33.2268 28.023 33.1899 27.9194 33.1477 27.8212C33.4739 27.8473 34.3321 27.8611 35.0927 27.3906V27.3867Z" fill="#1B85F3"/>
</svg>
