<svg width="30" height="30" viewBox="0 0 30 30" fill="none" xmlns="http://www.w3.org/2000/svg">
<path d="M14.9993 1.50024C18.503 4.60011 23.076 6.21409 27.7493 6.00024C28.4297 8.31477 28.6378 10.7424 28.3615 13.139C28.0851 15.5356 27.3297 17.8521 26.1404 19.951C24.951 22.0499 23.3518 23.8883 21.4379 25.357C19.524 26.8256 17.3344 27.8945 14.9993 28.5002M14.9993 1.50024C11.4955 4.60011 6.92256 6.21409 2.24926 6.00024C1.56887 8.31477 1.36069 10.7424 1.63708 13.139C1.91346 15.5356 2.66879 17.8521 3.85816 19.951C5.04753 22.0499 6.64668 23.8883 8.56058 25.357C10.4745 26.8256 12.6641 27.8945 14.9993 28.5002M14.9993 1.50024V28.5002M2.24924 15.0002H27.7492" stroke="#606873" stroke-width="2" stroke-linecap="round" stroke-linejoin="round"/>
</svg>
