<svg width="20" height="20" viewBox="0 0 20 20" fill="none" xmlns="http://www.w3.org/2000/svg">
<path d="M2.49609 12.3359C2.75609 12.4484 3.04109 12.5059 3.33276 12.5C3.65734 12.5068 3.9787 12.4345 4.26907 12.2893C4.55945 12.1442 4.81012 11.9305 4.99943 11.6667C5.18874 11.403 5.4394 11.1893 5.72978 11.0441C6.02016 10.8989 6.34151 10.8266 6.66609 10.8334C6.99067 10.8266 7.31203 10.8989 7.60241 11.0441C7.89278 11.1893 8.14345 11.403 8.33276 11.6667C8.52207 11.9305 8.77274 12.1442 9.06311 12.2893C9.35349 12.4345 9.67485 12.5068 9.99943 12.5C10.324 12.5068 10.6454 12.4345 10.9357 12.2893C11.2261 12.1442 11.4768 11.9305 11.6661 11.6667C11.8554 11.403 12.1061 11.1893 12.3964 11.0441C12.6868 10.8989 13.0082 10.8266 13.3328 10.8334C13.6573 10.8266 13.9787 10.8989 14.2691 11.0441C14.5594 11.1893 14.8101 11.403 14.9994 11.6667C15.1887 11.9305 15.4394 12.1442 15.7298 12.2893C16.0202 12.4345 16.3415 12.5068 16.6661 12.5C16.9578 12.5059 17.2428 12.4484 17.5028 12.3359M2.49945 16.6667H17.4995V10C17.4995 9.337 17.2361 8.70111 16.7672 8.23227C16.2984 7.76343 15.6625 7.50004 14.9995 7.50004H4.99945C4.33641 7.50004 3.70052 7.76343 3.23168 8.23227C2.76284 8.70111 2.49945 9.337 2.49945 10V16.6667ZM9.99946 3.33337L11.2203 4.69837C11.4381 4.93257 11.584 5.2245 11.6405 5.53933C11.6969 5.85416 11.6616 6.17859 11.5387 6.47389C11.4158 6.76919 11.2105 7.02289 10.9474 7.20471C10.6842 7.38654 10.3743 7.4888 10.0547 7.4993C9.73498 7.50979 9.41903 7.42808 9.14452 7.26391C8.87002 7.09974 8.64855 6.86005 8.50655 6.57345C8.36455 6.28685 8.30801 5.96544 8.3437 5.64758C8.37938 5.32973 8.50577 5.02886 8.70779 4.78087L9.99946 3.33337Z" stroke="#1B85F3" stroke-width="1.5" stroke-linecap="round" stroke-linejoin="round"/>
</svg>
