<svg width="43" height="43" viewBox="0 0 43 43" fill="none" xmlns="http://www.w3.org/2000/svg">
<rect x="0.832031" y="0.75" width="42" height="42" rx="21" fill="#D1E6FF"/>
<path d="M26.5061 24.047C26.0924 24.0096 26.2588 23.1834 26.2588 23.1834C26.2967 22.8569 26.2939 22.5454 26.2197 22.2719C26.4474 22.5381 26.4307 23.0383 26.4307 23.0383C26.4452 23.8639 26.8455 23.9962 26.8455 23.9962C26.5736 23.7321 26.6166 23.0221 26.6166 23.0221C26.6266 22.1625 26.247 21.9074 26.007 21.832C25.8557 21.6344 25.6325 21.4781 25.3165 21.3782C24.8482 21.2308 23.2746 21.4306 22.7923 21.4373C21.9555 21.4485 20.9664 21.5272 20.287 20.9299C20.0476 20.7189 19.8276 20.2902 19.6842 20.005C19.6099 19.8576 19.5608 19.7091 19.4414 19.5891C19.3258 19.4724 19.179 19.3898 19.0266 19.3307C18.791 19.2397 18.5264 19.2235 18.2831 19.2933C18.1742 19.3245 18.0637 19.3809 18.0023 19.478C17.9342 19.5863 17.8722 19.6879 17.7779 19.7761C17.6768 19.8704 17.295 19.9994 17.1639 20.0351C17.1292 20.0446 17.0924 20.0547 17.0578 20.0675C17.0405 20.0608 17.0204 20.0586 16.9986 20.0619C16.9646 20.0669 16.9277 20.0809 16.897 20.0954C16.8803 20.1032 16.8635 20.1133 16.8518 20.1283C16.8194 20.1696 16.8334 20.2294 16.8474 20.2751C16.8557 20.3008 16.8669 20.3299 16.8842 20.3527C16.8937 20.4002 16.911 20.4471 16.9283 20.4839C17.0991 20.8473 17.8661 20.7178 18.191 20.7111C18.3132 20.7083 18.4377 20.7061 18.5566 20.7346C18.5544 20.8948 18.5884 21.0483 18.6978 21.1426C18.695 21.1398 18.6922 21.1376 18.6894 21.1348C18.6945 21.137 18.6995 21.1393 18.7045 21.1415C19.1661 21.3318 19.1991 20.5565 19.3442 20.3209C19.3794 20.2634 19.4386 20.2221 19.4492 20.1512C19.4637 20.0535 19.4408 19.9525 19.3984 19.8643C19.3202 19.7019 19.1857 19.5456 19.0383 19.4395C19.0646 19.454 19.0891 19.4724 19.1126 19.4886C19.2661 19.5947 19.4079 19.756 19.4888 19.9246C19.5312 20.0128 19.5547 20.1138 19.5396 20.2115C19.529 20.2824 19.4704 20.3237 19.4347 20.3812C19.3068 20.5894 19.2661 21.2185 18.9401 21.2314C19.0054 21.5897 18.9429 22.0497 18.9836 22.3115C18.9836 22.3115 18.9507 23.2169 19.8131 23.6869C19.5167 24.4098 19.0819 24.5421 19.0819 24.5421C18.9055 24.6403 18.9596 24.7894 18.9596 24.7894H19.4274C19.7523 24.5019 19.9906 24.2234 20.1575 23.9967C20.0604 24.5589 19.7556 24.5415 19.7556 24.5415C19.5792 24.6398 19.6334 24.7888 19.6334 24.7888H20.1012C20.4517 24.4785 20.6236 24.1787 20.7063 23.9431C21.1355 23.9872 21.6708 23.9577 22.3401 23.8159C22.8135 23.7154 23.3137 23.6495 23.7195 23.6077C24.1353 24.4567 25.0916 24.2552 25.0916 24.2552C25.5415 24.3612 25.5415 24.5415 25.5415 24.5415C25.3651 24.6398 25.4192 24.7888 25.4192 24.7888H25.887C25.9406 24.5549 25.9049 24.3875 25.8446 24.2708C25.9216 24.2647 25.9679 24.2546 25.9679 24.2546C26.4179 24.3607 26.4179 24.541 26.4179 24.541C26.2415 24.6392 26.2956 24.7883 26.2956 24.7883H26.7634C26.8923 24.2289 26.5055 24.0464 26.5055 24.0464L26.5061 24.047Z" fill="#1B85F3"/>
</svg>
