<svg width="43" height="43" viewBox="0 0 43 43" fill="none" xmlns="http://www.w3.org/2000/svg">
<rect x="0.166016" y="0.75" width="42" height="42" rx="21" fill="#D1E6FF"/>
<path d="M28.3982 20.4256C28.2256 19.648 27.8281 18.9831 27.3533 18.6509C26.7564 18.2333 26.0202 18.0574 25.2938 18.0002C24.5674 17.943 23.8377 17.9959 23.1091 17.992C21.5899 17.9839 19.7706 18.1587 18.3836 17.3974C17.911 17.1382 17.4928 16.8147 17.2406 16.3345C16.9499 15.7807 16.4848 15.2726 15.8744 15.1332C15.65 15.082 15.4181 15.0826 15.1883 15.0837C14.9285 15.0847 14.6677 15.0864 14.4107 15.1245C14.2566 15.1474 14.1025 15.1844 13.9663 15.2595C13.7442 15.3826 13.5873 15.5977 13.4686 15.8226C13.3205 16.1025 12.9317 16.0655 12.623 16.084C12.617 16.0829 12.6115 16.0818 12.6055 16.0807C12.507 16.0649 12.3932 16.0704 12.2946 16.0829C12.2407 16.09 12.1862 16.1036 12.141 16.1346C12.0147 16.2201 12 16.3982 12 16.5365C12 16.6748 12.0196 16.8529 12.1405 16.9427C12.1154 17.3827 12.1378 17.8118 12.3011 18.2327C12.3659 18.4004 12.452 18.572 12.6061 18.6645C12.752 18.7528 12.9322 18.7538 13.1021 18.7691C13.4376 18.7985 13.7839 18.902 14.0153 19.1465C14.2163 19.3594 14.3061 19.6502 14.4079 19.9246C14.7635 20.8841 15.2122 22.13 15.9828 22.803C16.077 22.8853 16.1728 22.9642 16.2714 23.0405C17.3779 25.7659 16.0094 27.3167 16.0094 27.3167C15.3478 27.6031 15.5907 28.1542 15.5907 28.1542H17.178C17.6262 27.552 17.9828 26.7346 18.26 25.9091C18.3657 26.7433 18.3041 27.3167 18.3041 27.3167C17.6425 27.6031 17.8854 28.1542 17.8854 28.1542H19.4727C20.2759 27.0744 20.2116 25.3117 20.0254 24.0517C20.5351 23.9792 20.9811 23.8453 21.3192 23.719C21.8099 25.9407 23.8753 25.9597 23.8753 25.9597C24.8261 26.1634 25.0243 27.3167 25.0243 27.3167C24.3627 27.6031 24.5298 28.1542 24.5298 28.1542H26.3508C26.4951 27.2013 26.3148 26.4596 26.1003 25.9581C26.1253 25.9597 26.1389 25.9597 26.1389 25.9597C27.0897 26.1634 27.2879 27.3167 27.2879 27.3167C26.6263 27.6031 26.7935 28.1542 26.7935 28.1542H28.6144C28.9008 26.2581 27.9049 25.2001 27.9049 25.2001C27.032 24.251 27.7726 23.3481 27.7726 23.3481C27.7916 23.3242 27.8107 23.3007 27.8286 23.2768C28.212 24.6022 29.1933 25.1135 29.1933 25.1135V24.7879C29.7906 25.6749 31.1667 25.6025 31.1667 25.6025C29.9393 24.251 28.848 21.6061 28.3982 20.4234V20.4256ZM16.7489 16.5713C16.6357 16.9002 16.5093 17.2193 16.3329 17.5216C16.2033 17.7437 16.0454 18.0035 15.8123 18.1396C15.5428 18.2975 15.3407 18.0933 15.2275 17.8592C15.1605 17.7214 15.1099 17.5711 15.069 17.4192C15.1001 17.5134 15.1355 17.6054 15.1779 17.692C15.2912 17.9256 15.4932 18.1298 15.7628 17.9724C15.9953 17.8363 16.1537 17.5766 16.2833 17.3544C16.4592 17.0522 16.5861 16.7331 16.6994 16.4042C16.7418 16.2806 16.7593 16.1667 16.7473 16.0622C16.8213 16.2092 16.8159 16.3786 16.7495 16.5713H16.7489Z" fill="#1B85F3"/>
</svg>
